<svg width="24" height="24" viewBox="0 0 24 24" fill="none" xmlns="http://www.w3.org/2000/svg">
<path d="M23.034 5.32816C22.4921 4.36564 21.2726 4.02465 20.31 4.56653L12.4675 8.98174L8.05225 1.13917C7.51037 0.176657 6.29082 -0.164338 5.3283 0.377541C4.36578 0.91942 4.02479 2.13897 4.56666 3.10149L8.98188 10.9441L1.13931 15.3593C0.176795 15.9012 -0.164201 17.1207 0.377678 18.0832C0.919557 19.0457 2.13911 19.3867 3.10163 18.8449L10.9442 14.4296L15.3594 22.2722C15.9013 23.2347 17.1208 23.5757 18.0834 23.0338C19.0459 22.492 19.3869 21.2724 18.845 20.3099L14.4298 12.4673L22.2724 8.05211C23.2349 7.51023 23.5759 6.29068 23.034 5.32816Z" fill="#FF8A00"/>
</svg>
