<svg width="179" height="179" viewBox="0 0 179 179" fill="none" xmlns="http://www.w3.org/2000/svg">
<path d="M81.0271 178.686C80.9714 178.595 79.9197 178.498 78.6906 178.469C77.4612 178.44 75.285 178.221 73.8547 177.983C61.3204 175.894 48.6516 171.348 40.2108 165.911C38.6512 164.906 38.2946 164.518 38.551 164.104C38.7376 163.802 39.3574 163.955 42.9695 165.195C44.6979 165.788 47.3802 166.549 48.9297 166.885C51.5516 167.452 52.0864 167.495 56.6241 167.495C63.4319 167.495 65.7636 167.11 73.1795 164.759C87.3049 160.28 90.8389 160.26 104.871 164.58C112.929 167.061 116.099 167.61 122.373 167.608C126.937 167.606 131.227 166.802 136.384 164.98C137.754 164.496 139.133 164.051 139.446 163.992C140.06 163.878 140.357 164.137 140.171 164.622C139.886 165.364 132.679 169.387 128.256 171.274C119.63 174.954 106.253 178.362 100.079 178.452C98.8251 178.47 97.7447 178.574 97.6779 178.682C97.5304 178.919 81.1738 178.923 81.0271 178.686ZM48.7127 161.194C37.4832 159.537 27.7476 154.458 19.4474 145.926C14.926 141.279 11.5863 136.462 8.21903 129.731C3.81319 120.924 0.67394 109.564 0.135779 100.479C-0.0480145 97.3783 -0.0441132 80.1462 0.140764 77.1997C0.517671 71.1956 2.71279 62.3795 5.73327 54.738C6.89214 51.8058 9.9655 45.4139 11.4365 42.8767C11.8851 42.1026 12.3646 41.2744 12.502 41.0363C15.4641 35.8922 21.1555 28.6788 26.1838 23.6954C30.7416 19.1784 35.1088 15.6502 40.3682 12.2365C41.9774 11.1921 43.538 10.1713 43.8361 9.96797C44.9376 9.21654 51.61 5.83838 54.0482 4.79743C59.4525 2.49009 65.6283 0.46753 67.4682 0.402564C68.0695 0.381125 68.6117 0.281946 68.6737 0.181901C68.7354 0.0818555 69.2961 0 69.9195 0C70.8779 0 71.0573 0.0634488 71.0836 0.412092C71.1089 0.748608 70.7682 0.931375 69.2333 1.40605C62.8044 3.39331 55.4233 6.90681 48.3052 11.3688C42.9573 14.721 36.6881 19.9643 31.5038 25.4209C18.2226 39.4003 10.4943 56.2133 8.14272 76.2464C7.68432 80.1518 7.62387 90.5166 8.03847 94.1985C10.5817 116.798 20.3529 134.711 34.8417 143.335C40.2502 146.554 46.1914 148.257 52.8307 148.491C58.2118 148.68 61.6531 147.974 71.3859 144.683C80.5379 141.589 83.016 140.934 87.0246 140.555C89.7001 140.302 92.8675 140.531 95.9719 141.203C97.8219 141.604 105.53 144.007 109.724 145.491C116.178 147.775 120.96 148.663 125.871 148.491C133.918 148.208 140.961 145.758 147.364 141.015C159.92 131.713 168.398 114.673 170.657 94.1991C171.025 90.8657 171.028 80.7394 170.663 77.3082C169.05 62.1709 164.584 49.3319 156.84 37.5717C149.241 26.0302 138.472 15.8802 126.522 8.99499C121.626 6.17467 114.207 2.87425 109.453 1.4028C107.949 0.937224 107.557 0.731503 107.557 0.407978C107.557 0.063882 107.724 0.000433099 108.628 0.000433099C109.217 0.000433099 109.748 0.0809892 109.809 0.179519C109.87 0.277832 110.474 0.38091 111.15 0.408195C114.187 0.530978 123.867 4.12959 130.459 7.58636C151.524 18.6327 166.921 36.681 174.683 59.4265C176.705 65.3504 178.372 72.9923 178.443 76.6584C178.465 77.7941 178.592 78.8557 178.727 79.028C178.919 79.2721 178.908 79.3019 178.679 79.1642C178.442 79.0217 178.433 79.0757 178.634 79.4486C178.934 80.0099 178.819 95.9194 178.475 101.237C178.218 105.225 177.519 109.21 176.159 114.446C171.61 131.959 162.18 145.909 149.387 154.049C144.83 156.949 138.122 159.663 132.897 160.72C130.711 161.163 129.804 161.221 125.113 161.221C118.037 161.221 114.605 160.637 104.956 157.794C94.8126 154.804 93.4899 154.528 89.3507 154.528C85.211 154.528 83.8853 154.805 73.7456 157.794C64.4389 160.537 61.1821 161.115 54.456 161.215C51.6547 161.256 49.0702 161.247 48.7127 161.194ZM49.4714 141.2C45.1337 140.726 41.6209 139.681 37.4423 137.62C31.7909 134.831 27.0304 130.463 22.9284 124.299C20.9886 121.384 19.2846 118.271 19.427 117.901C19.6611 117.291 20.4845 117.591 21.7238 118.738C24.4325 121.243 30.6417 125.815 31.336 125.815C31.4573 125.815 31.7104 125.954 31.8985 126.122C32.3612 126.537 35.9807 128.112 37.9843 128.771C42.0033 130.091 47.1912 130.699 51.5304 130.357C56.6232 129.957 60.2505 129.1 65.9434 126.952C74.9157 123.566 79.7053 122.386 86.3852 121.912C91.3579 121.56 97.1905 122.122 102.464 123.462C105.013 124.11 107.842 125.036 112.109 126.62C116.73 128.337 119.302 129.11 122.318 129.689C132.429 131.629 141.723 129.843 150.038 124.361C152.557 122.7 156.182 119.841 157.505 118.473C158.389 117.558 159.264 117.309 159.494 117.906C159.717 118.487 156.48 123.944 153.967 127.222C152.584 129.027 149.573 132.126 147.762 133.608C143.386 137.188 137.759 139.777 131.94 140.889C129.249 141.403 122.796 141.408 119.803 140.898C116.484 140.333 113.008 139.344 109.074 137.848C100.343 134.528 95.9364 133.565 89.4595 133.558C86.6735 133.556 85.1248 133.668 83.1091 134.015C78.3009 134.844 76.4008 135.41 68.178 138.462C65.1817 139.574 62.2225 140.367 59.2215 140.859C56.7353 141.268 51.7015 141.444 49.4714 141.2Z" fill="#68768A"/>
<g clip-path="url(#clip0_503_781)">
<path d="M74.2899 102.869L51.9661 49.553C50.3814 45.8826 48.7967 43.3392 47.212 41.9226C45.6273 40.5059 43.8014 39.6689 41.7344 39.4113V37.4796C42.01 37.4796 42.699 37.4474 43.8014 37.383C44.8349 37.3186 45.5928 37.2864 46.0751 37.2864C48.4866 37.2864 50.9671 37.5439 53.5164 38.0591C56.0657 38.5098 58.4772 39.6045 60.751 41.343C63.0247 43.0816 64.9539 45.8182 66.5386 49.553L80.4911 82.8755L89.7925 58.1492L86.1753 49.553C84.5906 45.8826 82.8681 43.3392 81.0077 41.9226C79.2164 40.5059 77.287 39.6689 75.22 39.4113V37.4796C75.4957 37.4796 76.1158 37.4474 77.0805 37.383C78.0451 37.3186 78.7686 37.2864 79.2506 37.2864C81.6623 37.2864 84.1428 37.5439 86.6922 38.0591C89.2413 38.5742 91.6529 39.7011 93.9266 41.4396C96.2005 43.1138 98.1295 45.8182 99.7142 49.553L114.494 84.7107L132.167 38.2522H137.127L112.633 102.869H108.499L92.583 65.0069L78.424 102.869H74.2899Z" fill="#68768A"/>
</g>
<defs>
<clipPath id="clip0_503_781">
<rect width="95.393" height="68.5637" fill="white" transform="translate(41.7344 35.7725)"/>
</clipPath>
</defs>
</svg>
