<svg width="340" height="99" viewBox="0 0 340 99" fill="none" xmlns="http://www.w3.org/2000/svg">
<path d="M38.1348 21.9062V93H23.5352V21.9062H38.1348ZM60.0098 21.9062V33.3809H2.00195V21.9062H60.0098ZM84.3242 40.168V93H70.2129V40.168H84.3242ZM69.334 26.3984C69.334 24.3477 70.0501 22.6549 71.4824 21.3203C72.9147 19.9857 74.8353 19.3184 77.2441 19.3184C79.6204 19.3184 81.5247 19.9857 82.957 21.3203C84.4219 22.6549 85.1543 24.3477 85.1543 26.3984C85.1543 28.4492 84.4219 30.1419 82.957 31.4766C81.5247 32.8112 79.6204 33.4785 77.2441 33.4785C74.8353 33.4785 72.9147 32.8112 71.4824 31.4766C70.0501 30.1419 69.334 28.4492 69.334 26.3984ZM123.824 40.168V50.1289H93.0625V40.168H123.824ZM100.68 27.1309H114.742V77.082C114.742 78.612 114.938 79.7839 115.328 80.5977C115.751 81.4115 116.37 81.9811 117.184 82.3066C117.997 82.5996 119.023 82.7461 120.26 82.7461C121.139 82.7461 121.92 82.7135 122.604 82.6484C123.32 82.5508 123.922 82.4531 124.41 82.3555L124.459 92.707C123.255 93.0977 121.952 93.4069 120.553 93.6348C119.153 93.8626 117.607 93.9766 115.914 93.9766C112.822 93.9766 110.12 93.472 107.809 92.4629C105.53 91.4212 103.772 89.7611 102.535 87.4824C101.298 85.2038 100.68 82.209 100.68 78.498V27.1309ZM162.348 81.0859V57.5508C162.348 55.8581 162.071 54.4095 161.518 53.2051C160.964 51.9681 160.102 51.0078 158.93 50.3242C157.79 49.6406 156.309 49.2988 154.486 49.2988C152.924 49.2988 151.573 49.5755 150.434 50.1289C149.294 50.6497 148.415 51.4147 147.797 52.4238C147.178 53.4004 146.869 54.556 146.869 55.8906H132.807C132.807 53.6445 133.327 51.5124 134.369 49.4941C135.411 47.4759 136.924 45.7018 138.91 44.1719C140.896 42.6094 143.256 41.3887 145.99 40.5098C148.757 39.6309 151.85 39.1914 155.268 39.1914C159.369 39.1914 163.015 39.875 166.205 41.2422C169.395 42.6094 171.902 44.6602 173.725 47.3945C175.58 50.1289 176.508 53.5469 176.508 57.6484V80.2559C176.508 83.153 176.687 85.5293 177.045 87.3848C177.403 89.2077 177.924 90.8027 178.607 92.1699V93H164.398C163.715 91.5677 163.194 89.7773 162.836 87.6289C162.51 85.4479 162.348 83.2669 162.348 81.0859ZM164.203 60.8223L164.301 68.7812H156.439C154.584 68.7812 152.973 68.9928 151.605 69.416C150.238 69.8392 149.115 70.4414 148.236 71.2227C147.357 71.9714 146.706 72.8503 146.283 73.8594C145.893 74.8685 145.697 75.9753 145.697 77.1797C145.697 78.3841 145.974 79.4746 146.527 80.4512C147.081 81.3952 147.878 82.1439 148.92 82.6973C149.962 83.2181 151.182 83.4785 152.582 83.4785C154.698 83.4785 156.537 83.0553 158.1 82.209C159.662 81.3626 160.867 80.321 161.713 79.084C162.592 77.847 163.048 76.6751 163.08 75.5684L166.791 81.5254C166.27 82.86 165.554 84.2435 164.643 85.6758C163.764 87.1081 162.641 88.459 161.273 89.7285C159.906 90.9655 158.262 91.9909 156.342 92.8047C154.421 93.5859 152.143 93.9766 149.506 93.9766C146.153 93.9766 143.109 93.3092 140.375 91.9746C137.673 90.6074 135.525 88.7357 133.93 86.3594C132.367 83.9505 131.586 81.2161 131.586 78.1562C131.586 75.3893 132.107 72.9316 133.148 70.7832C134.19 68.6348 135.72 66.8281 137.738 65.3633C139.789 63.8659 142.344 62.7428 145.404 61.9941C148.464 61.2129 152.012 60.8223 156.049 60.8223H164.203ZM203.117 51.4473V93H189.055V40.168H202.238L203.117 51.4473ZM201.066 64.7285H197.258C197.258 60.8223 197.762 57.3066 198.771 54.1816C199.781 51.0241 201.197 48.3385 203.02 46.125C204.842 43.8789 207.007 42.1699 209.514 40.998C212.053 39.7936 214.885 39.1914 218.01 39.1914C220.484 39.1914 222.746 39.5495 224.797 40.2656C226.848 40.9818 228.605 42.1211 230.07 43.6836C231.568 45.2461 232.707 47.3132 233.488 49.8848C234.302 52.4564 234.709 55.5977 234.709 59.3086V93H220.549V59.2598C220.549 56.916 220.223 55.0931 219.572 53.791C218.921 52.4889 217.961 51.5775 216.691 51.0566C215.454 50.5033 213.924 50.2266 212.102 50.2266C210.214 50.2266 208.57 50.6009 207.17 51.3496C205.803 52.0983 204.663 53.14 203.752 54.4746C202.873 55.7767 202.206 57.3066 201.75 59.0645C201.294 60.8223 201.066 62.7103 201.066 64.7285ZM300.818 78.1562L317.566 21.9062H333.875L309.119 93H298.377L300.818 78.1562ZM285.389 21.9062L302.088 78.1562L304.627 93H293.787L269.178 21.9062H285.389Z" fill="#68768A"/>
</svg>
