<svg width="397" height="86" viewBox="0 0 397 86" fill="none" xmlns="http://www.w3.org/2000/svg">
<g clip-path="url(#clip0_503_793)">
<path d="M78.2735 18.656C70.5477 7.39044 57.5771 0 42.8799 0C19.198 0 0 19.1878 0 42.8571C0 46.3007 0.406357 49.6494 1.17372 52.8579L23.0098 31.0333C25.1029 28.9412 28.4969 28.9412 30.5901 31.0333L48.2398 48.6739L78.2735 18.656Z" fill="#68768A"/>
<path d="M83.3699 28.7144L52.0298 60.038C49.9366 62.1301 46.5427 62.1301 44.4495 60.038L26.7998 42.3974L5.43311 63.7529C12.7684 76.856 26.789 85.7141 42.8797 85.7141C66.5616 85.7141 85.7596 66.5264 85.7596 42.857C85.7596 37.9014 84.918 33.1421 83.3699 28.7144Z" fill="#68768A"/>
<path d="M134.661 53.6916H123.499L121.55 60.0002H112.848L125.24 26.2305H132.897L145.382 60.0002H136.633L134.661 53.6916ZM125.448 47.4062H132.712L129.068 35.6935L125.448 47.4062Z" fill="#68768A"/>
<path d="M176.083 60.0002H167.984L156.01 38.9869V60.0002H147.865V26.2305H156.01L167.961 47.2438V26.2305H176.083V60.0002Z" fill="#68768A"/>
<path d="M200.843 53.6916H189.682L187.732 60.0002H179.03L191.422 26.2305H199.08L211.565 60.0002H202.816L200.843 53.6916ZM191.631 47.4062H198.894L195.251 35.6935L191.631 47.4062Z" fill="#68768A"/>
<path d="M222.193 53.7379H236.371V60.0002H214.047V26.2305H222.193V53.7379Z" fill="#68768A"/>
<path d="M245.676 40.8887L251.896 26.2305H260.69L249.807 47.8699V60.0002H241.547V47.8699L230.685 26.2305H239.435L245.676 40.8887Z" fill="#68768A"/>
<path d="M290.093 32.5159H279.952V60.0002H271.807V32.5159H261.85V26.2305H290.093V32.5159Z" fill="#68768A"/>
<path d="M302.228 60.0002H294.106V26.2305H302.228V60.0002Z" fill="#68768A"/>
<path d="M335.228 48.5655C335.119 50.9157 334.484 52.9954 333.324 54.8046C332.165 56.5982 330.533 57.9897 328.428 58.9793C326.339 59.9689 323.949 60.4637 321.258 60.4637C316.818 60.4637 313.321 59.0181 310.767 56.1265C308.216 53.2352 306.94 49.153 306.94 43.8805V42.2106C306.94 38.9016 307.513 36.0102 308.658 33.5363C309.818 31.0467 311.479 29.1295 313.647 27.7842C315.812 26.4235 318.319 25.7432 321.164 25.7432C325.265 25.7432 328.56 26.8255 331.05 28.9902C333.541 31.1395 334.956 34.1085 335.297 37.8966H327.175C327.113 35.8401 326.594 34.3634 325.621 33.4667C324.646 32.5699 323.16 32.1214 321.164 32.1214C319.138 32.1214 317.652 32.8791 316.708 34.3943C315.765 35.9097 315.27 38.3294 315.225 41.6539V44.0427C315.225 47.6455 315.673 50.22 316.569 51.7662C317.482 53.3125 319.045 54.0857 321.258 54.0857C323.13 54.0857 324.56 53.6449 325.55 52.7635C326.541 51.8822 327.066 50.4829 327.128 48.5655H335.228Z" fill="#68768A"/>
<path d="M356.507 51.024C356.507 49.8335 356.081 48.9058 355.23 48.2409C354.396 47.576 352.918 46.8879 350.798 46.1767C348.68 45.4655 346.945 44.7774 345.601 44.1125C341.223 41.9632 339.034 39.0099 339.034 35.2526C339.034 33.3817 339.574 31.7349 340.657 30.3125C341.757 28.8744 343.303 27.7612 345.299 26.9726C347.295 26.1686 349.537 25.7666 352.029 25.7666C354.458 25.7666 356.63 26.1995 358.549 27.0654C360.482 27.9313 361.983 29.1682 363.051 30.7764C364.119 32.369 364.652 34.1934 364.652 36.2499H356.531C356.531 34.8737 356.104 33.8068 355.253 33.0493C354.419 32.2916 353.281 31.9127 351.842 31.9127C350.389 31.9127 349.235 32.2374 348.384 32.8869C347.55 33.521 347.132 34.3327 347.132 35.3222C347.132 36.1882 347.595 36.9767 348.523 37.688C349.452 38.3837 351.085 39.1104 353.42 39.8681C355.757 40.6104 357.676 41.4144 359.175 42.2803C362.826 44.3831 364.652 47.2822 364.652 50.9777C364.652 53.931 363.538 56.2505 361.31 57.9358C359.082 59.6212 356.027 60.4637 352.144 60.4637C349.407 60.4637 346.924 59.9767 344.696 59.0025C342.484 58.013 340.811 56.6679 339.684 54.9669C338.569 53.2507 338.011 51.2792 338.011 49.0526H346.18C346.18 50.8618 346.645 52.1992 347.573 53.0651C348.517 53.9156 350.041 54.3407 352.144 54.3407C353.491 54.3407 354.55 54.0547 355.324 53.4825C356.113 52.895 356.507 52.0755 356.507 51.024Z" fill="#68768A"/>
</g>
<defs>
<clipPath id="clip0_503_793">
<rect width="396.639" height="85.7143" fill="white"/>
</clipPath>
</defs>
</svg>
